<?xml version="1.0" ?><!DOCTYPE svg  PUBLIC '-//W3C//DTD SVG 1.1//EN'  'http://www.w3.org/Graphics/SVG/1.1/DTD/svg11.dtd'><svg enable-background="new 0 0 64 64" height="64px" id="Layer_1" version="1.1" viewBox="0 0 64 64" width="64px" xml:space="preserve" xmlns="http://www.w3.org/2000/svg" xmlns:xlink="http://www.w3.org/1999/xlink"><path d="M62,30h-5.601l3.349-6.029c0.535-0.965,0.188-2.183-0.777-2.72c-0.965-0.536-2.183-0.188-2.719,0.777L51.823,30h-5.582  l1.921-1.373c0.899-0.643,1.107-1.892,0.465-2.79c-0.642-0.899-1.891-1.107-2.789-0.465L39.359,30h-2.781  c-0.149-0.341-0.342-0.655-0.561-0.951l1.394-2.406l7.247-3.297c1.005-0.458,1.449-1.643,0.992-2.648  c-0.457-1.005-1.643-1.45-2.648-0.993l-2.15,0.978l2.791-4.834L52.761,16c1.104,0.018,2.015-0.863,2.032-1.967  c0.019-1.104-0.863-2.014-1.966-2.033l-6.896-0.114l2.8-4.851c0.552-0.957,0.225-2.18-0.731-2.732  c-0.957-0.552-2.18-0.225-2.732,0.732l-2.801,4.851l-3.546-5.915c-0.569-0.947-1.797-1.254-2.744-0.687s-1.255,1.796-0.687,2.744  l4.689,7.82l-2.791,4.834l-0.229-2.35c-0.107-1.1-1.086-1.904-2.184-1.797c-1.1,0.106-1.904,1.084-1.798,2.184l0.769,7.924  l-1.396,2.412C32.368,27.035,32.189,27,32,27s-0.368,0.035-0.551,0.056l-1.396-2.412l0.768-7.924c0.106-1.1-0.698-2.077-1.797-2.184  c-1.099-0.106-2.077,0.698-2.184,1.797l-0.228,2.35l-2.791-4.834l4.689-7.82c0.568-0.948,0.26-2.176-0.687-2.744  s-2.175-0.26-2.744,0.687l-3.546,5.915l-2.8-4.851C18.18,4.079,16.957,3.751,16,4.304s-1.284,1.775-0.732,2.732l2.8,4.851L11.173,12  c-1.103,0.019-1.984,0.929-1.966,2.033c0.018,1.104,0.928,1.985,2.033,1.967l9.118-0.151l2.791,4.834l-2.149-0.978  c-1.006-0.457-2.191-0.012-2.649,0.993c-0.458,1.005-0.013,2.191,0.993,2.648l7.247,3.297l1.393,2.406  c-0.218,0.296-0.411,0.61-0.56,0.951h-2.781l-6.479-4.627c-0.899-0.642-2.148-0.434-2.79,0.465c-0.643,0.899-0.434,2.149,0.465,2.79  L17.759,30h-5.582l-4.428-7.971c-0.537-0.966-1.754-1.313-2.72-0.777c-0.967,0.537-1.314,1.755-0.777,2.72L7.601,30H2  c-1.104,0-2,0.896-2,2c0,1.105,0.896,2,2,2h5.601l-3.349,6.029C4.081,40.337,4,40.67,4,40.998c0,0.703,0.371,1.385,1.029,1.751  c0.965,0.536,2.183,0.188,2.72-0.777L12.177,34h5.582l-1.921,1.373C15.291,35.764,15,36.378,15,37.002  c0,0.402,0.121,0.809,0.373,1.161c0.642,0.899,1.891,1.106,2.79,0.465L24.641,34h2.781c0.149,0.341,0.342,0.654,0.56,0.951  l-1.393,2.405l-7.247,3.297c-1.005,0.458-1.45,1.644-0.993,2.648s1.643,1.45,2.649,0.993l2.149-0.979l-2.791,4.834L11.239,48  c-1.104-0.018-2.015,0.863-2.033,1.967C9.188,51.071,10.07,51.98,11.173,52l6.896,0.113l-2.8,4.852  c-0.552,0.956-0.225,2.18,0.732,2.731s2.18,0.225,2.732-0.731l2.8-4.852l3.546,5.916c0.569,0.946,1.797,1.254,2.744,0.686  c0.947-0.567,1.255-1.796,0.687-2.744l-4.689-7.82l2.791-4.834l0.228,2.351c0.107,1.1,1.085,1.903,2.184,1.798  c1.099-0.107,1.904-1.084,1.797-2.184l-0.768-7.925l1.396-2.412C31.632,36.965,31.811,37,32,37s0.368-0.035,0.551-0.056l1.396,2.412  l-0.769,7.925c-0.106,1.1,0.698,2.076,1.798,2.184c1.098,0.105,2.076-0.698,2.184-1.798l0.229-2.351l2.791,4.834l-4.689,7.82  c-0.568,0.948-0.261,2.177,0.687,2.744c0.947,0.568,2.175,0.261,2.744-0.686l3.546-5.916l2.801,4.852  c0.553,0.956,1.775,1.283,2.732,0.731c0.956-0.552,1.283-1.775,0.731-2.731l-2.8-4.852L52.827,52  c1.103-0.02,1.984-0.929,1.966-2.033c-0.018-1.104-0.928-1.984-2.032-1.967l-9.118,0.15l-2.791-4.834l2.15,0.979  c1.006,0.457,2.191,0.012,2.648-0.993s0.013-2.19-0.992-2.648l-7.247-3.297l-1.394-2.405c0.219-0.297,0.411-0.61,0.561-0.951h2.781  l6.479,4.628c0.898,0.642,2.147,0.435,2.789-0.465c0.642-0.897,0.435-2.147-0.465-2.79L46.241,34h5.582l4.429,7.972  c0.536,0.966,1.754,1.313,2.719,0.777c0.966-0.536,1.313-1.753,0.777-2.72L56.399,34H62c1.104,0,2-0.895,2-2  C64,30.896,63.104,30,62,30z"/></svg>