<?xml version="1.0" ?><!DOCTYPE svg  PUBLIC '-//W3C//DTD SVG 1.1//EN'  'http://www.w3.org/Graphics/SVG/1.1/DTD/svg11.dtd'><svg enable-background="new 0 0 64 64" height="64px" id="Layer_1" version="1.1" viewBox="0 0 64 64" width="64px" xml:space="preserve" xmlns="http://www.w3.org/2000/svg" xmlns:xlink="http://www.w3.org/1999/xlink"><path d="M58.999,45.268l-3.612-2.085l2.166-0.581c0.534-0.143,0.959-0.488,1.215-0.932s0.343-0.983,0.199-1.518  c-0.285-1.066-1.382-1.7-2.449-1.414l-5.854,1.569l4.644-3.065c0.269-0.178,0.479-0.408,0.629-0.668  c0.368-0.637,0.37-1.451-0.062-2.104c-0.608-0.922-1.85-1.175-2.771-0.567L46.67,38.15l-0.175-0.102l1.086-1.122  c0.117-0.121,0.215-0.253,0.296-0.393c0.447-0.774,0.33-1.784-0.343-2.437c-0.795-0.767-2.061-0.746-2.829,0.048l-1.78,1.843  L39.477,34H42c1.104,0,2-0.896,2-2s-0.896-2-2-2h-2.523l3.448-1.988l1.78,1.842c0.769,0.794,2.034,0.814,2.829,0.047  c0.673-0.652,0.79-1.661,0.343-2.436c-0.081-0.14-0.179-0.271-0.296-0.393l-1.086-1.122l0.175-0.101l6.434,4.248  c0.922,0.608,2.163,0.354,2.771-0.567c0.432-0.654,0.43-1.468,0.062-2.104c-0.149-0.26-0.36-0.49-0.629-0.667l-4.644-3.066  l5.854,1.569c1.067,0.286,2.164-0.348,2.449-1.414c0.144-0.534,0.057-1.075-0.199-1.518c-0.256-0.443-0.681-0.789-1.215-0.931  l-2.166-0.581l3.612-2.085c0.957-0.553,1.285-1.775,0.732-2.732c-0.552-0.956-1.775-1.284-2.731-0.731l-3.613,2.085l0.58-2.167  c0.286-1.067-0.346-2.163-1.414-2.449c-1.066-0.286-2.163,0.348-2.449,1.414l-1.567,5.855l-0.334-5.556  c-0.066-1.106-1.015-1.942-2.116-1.876c-1.103,0.066-1.943,1.013-1.877,2.117l0.462,7.694l-0.175,0.101l-0.43-1.501  c-0.304-1.06-1.41-1.677-2.473-1.373c-1.063,0.304-1.678,1.411-1.373,2.473l0.704,2.463l-3.466,1.997l1.273-2.206  c0.552-0.957,0.225-2.18-0.732-2.732c-0.96-0.554-2.18-0.225-2.732,0.732L34,24.535v-3.973l2.485-0.621  c1.071-0.268,1.723-1.354,1.455-2.425c-0.269-1.072-1.357-1.721-2.426-1.456L34,16.438v-0.202l6.895-3.447  c0.988-0.494,1.389-1.695,0.895-2.684c-0.494-0.986-1.692-1.389-2.684-0.895L34.128,11.7l4.286-4.286  c0.781-0.781,0.781-2.047,0-2.828c-0.781-0.781-2.047-0.781-2.828,0L34,6.172V2c0-1.104-0.896-2-2-2s-2,0.896-2,2v4.172  l-1.586-1.586c-0.781-0.781-2.047-0.781-2.828,0c-0.781,0.781-0.781,2.047,0,2.828l4.286,4.286l-4.978-2.489  c-0.991-0.495-2.189-0.092-2.684,0.895c-0.494,0.988-0.094,2.189,0.895,2.684L30,16.236v0.202l-1.515-0.379  c-1.069-0.266-2.157,0.383-2.426,1.456c-0.268,1.071,0.384,2.157,1.455,2.425L30,20.562v3.973l-1.268-2.195  c-0.554-0.957-1.776-1.286-2.732-0.732c-0.957,0.552-1.284,1.775-0.732,2.732l1.273,2.206l-3.466-1.997l0.704-2.463  c0.305-1.062-0.311-2.169-1.373-2.473c-1.063-0.304-2.169,0.313-2.473,1.373l-0.43,1.501l-0.175-0.101l0.462-7.694  c0.066-1.104-0.774-2.051-1.877-2.117c-1.102-0.066-2.05,0.77-2.116,1.876l-0.334,5.556l-1.567-5.855  c-0.286-1.066-1.383-1.7-2.449-1.414c-1.068,0.286-1.7,1.382-1.414,2.449l0.58,2.167L7,15.268C6.044,14.715,4.82,15.043,4.269,16  c-0.553,0.957-0.225,2.18,0.732,2.732l3.612,2.085l-2.166,0.581c-0.534,0.142-0.959,0.488-1.215,0.931  c-0.256,0.443-0.343,0.984-0.199,1.518c0.285,1.066,1.382,1.7,2.449,1.414l5.854-1.569l-4.644,3.066  c-0.269,0.177-0.479,0.408-0.629,0.667c-0.368,0.636-0.37,1.451,0.062,2.104c0.608,0.922,1.85,1.175,2.771,0.567l6.434-4.248  l0.175,0.101l-1.086,1.122c-0.117,0.121-0.215,0.252-0.296,0.393c-0.447,0.775-0.33,1.784,0.343,2.436  c0.795,0.767,2.061,0.747,2.829-0.047l1.78-1.842L24.523,30H22c-1.104,0-2,0.896-2,2s0.896,2,2,2h2.523l-3.448,1.988l-1.78-1.843  c-0.769-0.794-2.034-0.814-2.829-0.048c-0.673,0.652-0.79,1.662-0.343,2.437c0.081,0.14,0.179,0.271,0.296,0.393l1.086,1.122  L17.33,38.15l-6.434-4.248c-0.922-0.607-2.163-0.354-2.771,0.567c-0.432,0.653-0.43,1.468-0.062,2.104  c0.149,0.26,0.36,0.49,0.629,0.668l4.644,3.065l-5.854-1.569c-1.067-0.286-2.164,0.348-2.449,1.414  c-0.144,0.534-0.057,1.074,0.199,1.518s0.681,0.789,1.215,0.932l2.166,0.581l-3.612,2.085C4.044,45.82,3.716,47.043,4.269,48  C4.82,48.957,6.044,49.285,7,48.732l3.613-2.086l-0.58,2.166c-0.286,1.068,0.346,2.164,1.414,2.449  c1.066,0.287,2.163-0.348,2.449-1.414l1.567-5.854l0.334,5.556c0.066,1.105,1.015,1.942,2.116,1.876  c1.103-0.065,1.943-1.013,1.877-2.116l-0.462-7.695l0.175-0.1l0.43,1.501c0.304,1.06,1.41,1.677,2.473,1.372  c1.063-0.303,1.678-1.41,1.373-2.473l-0.704-2.463l3.466-1.996l-1.273,2.205c-0.552,0.956-0.225,2.18,0.732,2.731  c0.315,0.183,0.659,0.269,0.998,0.269c0.691,0,1.363-0.359,1.734-1L30,39.465v3.974l-2.485,0.621  c-1.071,0.269-1.723,1.354-1.455,2.425c0.269,1.073,1.356,1.723,2.426,1.456L30,47.562v0.202l-6.895,3.447  c-0.988,0.494-1.389,1.695-0.895,2.684c0.494,0.987,1.692,1.391,2.684,0.895l4.978-2.488l-4.286,4.285  c-0.781,0.781-0.781,2.047,0,2.828s2.047,0.781,2.828,0L30,57.828V62c0,1.104,0.896,2,2,2s2-0.896,2-2v-4.172l1.586,1.586  C35.977,59.805,36.488,60,37,60s1.023-0.195,1.414-0.586c0.781-0.781,0.781-2.047,0-2.828l-4.286-4.285l4.978,2.488  C39.393,54.933,39.698,55,39.998,55c0.734,0,1.44-0.404,1.791-1.105c0.494-0.988,0.094-2.189-0.895-2.684L34,47.764v-0.202  l1.515,0.379c0.163,0.04,0.326,0.06,0.487,0.06c0.896,0,1.711-0.605,1.938-1.516c0.268-1.07-0.384-2.156-1.455-2.425L34,43.438  v-3.974l1.268,2.195c0.371,0.641,1.043,1,1.734,1c0.339,0,0.684-0.086,0.998-0.269c0.957-0.552,1.284-1.775,0.732-2.731  l-1.273-2.205l3.466,1.996l-0.704,2.463c-0.305,1.063,0.311,2.17,1.373,2.473c1.063,0.305,2.169-0.313,2.473-1.372l0.43-1.501  l0.175,0.1l-0.462,7.695c-0.066,1.104,0.774,2.051,1.877,2.116c1.102,0.066,2.05-0.771,2.116-1.876l0.334-5.556l1.567,5.854  c0.286,1.066,1.383,1.701,2.449,1.414c1.068-0.285,1.7-1.381,1.414-2.449l-0.58-2.166L57,48.732c0.956,0.553,2.18,0.225,2.731-0.732  C60.284,47.043,59.956,45.82,58.999,45.268z"/></svg>